<?xml version="1.0" standalone="no"?>
<!DOCTYPE svg PUBLIC "-//W3C//DTD SVG 20010904//EN"
 "http://www.w3.org/TR/2001/REC-SVG-20010904/DTD/svg10.dtd">
<svg version="1.0" xmlns="http://www.w3.org/2000/svg"
 width="640.000000pt" height="640.000000pt" viewBox="0 0 640.000000 640.000000"
 preserveAspectRatio="xMidYMid meet">
<metadata>
Created by potrace 1.14, written by Peter Selinger 2001-2017
</metadata>
<g transform="translate(0.000000,640.000000) scale(0.100000,-0.100000)"
fill="#000000" stroke="none">
<path d="M0 3200 l0 -3200 3200 0 3200 0 0 3200 0 3200 -2196 0 -2196 0 -34
-37 c-18 -20 -31 -40 -28 -45 3 -4 -4 -8 -15 -8 -12 0 -21 -4 -21 -10 0 -5 -9
-10 -20 -10 -13 0 -20 -7 -20 -20 0 -11 -7 -23 -15 -26 -8 -4 -12 -10 -9 -15
3 -5 1 -9 -4 -9 -10 0 -32 -44 -32 -65 0 -24 17 -17 24 9 3 13 12 26 20 29 10
4 12 0 9 -14 -3 -10 0 -19 6 -19 6 0 11 7 11 15 0 8 4 15 9 15 6 0 9 -8 9 -17
0 -10 3 -38 7 -62 7 -35 5 -43 -6 -39 -8 2 -16 15 -17 29 -5 34 -22 49 -22 19
0 -22 -1 -23 -13 -5 -10 12 -16 15 -21 6 -4 -6 2 -23 14 -38 25 -32 16 -38
-36 -24 -27 7 -42 7 -51 -1 -7 -6 -13 -7 -13 -2 0 4 -12 -3 -27 -17 -23 -21
-25 -21 -19 -5 7 20 7 20 -16 1 -13 -11 -24 -20 -26 -21 -3 -1 -42 -106 -42
-112 0 -2 5 0 10 3 11 7 4 -59 -12 -105 -6 -19 -7 -15 -3 15 4 35 3 37 -6 15
-20 -46 -26 -55 -37 -55 -6 0 -14 -3 -18 -7 -11 -12 -36 -10 -29 2 4 6 11 8
16 5 10 -7 11 2 0 29 -6 15 -11 12 -34 -23 -26 -40 -35 -45 -67 -42 -12 1 -12
0 -2 -7 10 -7 10 -11 -2 -21 -11 -9 -15 -9 -19 1 -4 9 -11 7 -25 -9 -11 -12
-22 -20 -25 -17 -3 3 -20 -2 -38 -11 -30 -16 -35 -16 -66 -1 -18 9 -40 16 -49
16 -8 0 -17 7 -20 15 -3 8 -15 17 -26 21 -19 6 -20 11 -13 68 3 33 11 65 16
70 5 6 9 24 9 42 0 17 8 42 19 55 25 33 51 159 66 323 3 33 8 63 11 68 3 4 2
17 -1 28 -6 20 -16 20 -636 20 l-629 0 0 -3200z m3035 3141 c-6 -5 -25 10 -25
20 0 5 6 4 14 -3 8 -7 12 -15 11 -17z m-831 -110 c3 -4 -6 -6 -19 -3 -14 2
-25 6 -25 8 0 8 39 4 44 -5z m-239 -11 c3 -5 1 -10 -4 -10 -6 0 -11 5 -11 10
0 6 2 10 4 10 3 0 8 -4 11 -10z m-43 -45 c3 -13 1 -22 -3 -19 -9 5 -13 44 -5
44 2 0 6 -11 8 -25z m14 -102 c-10 -10 -19 5 -10 18 6 11 8 11 12 0 2 -7 1
-15 -2 -18z m-416 -343 c-8 -5 -17 -7 -19 -4 -3 3 1 9 9 14 8 5 17 7 19 4 3
-3 -1 -9 -9 -14z m2519 -1247 c6 -21 13 -55 16 -77 4 -21 9 -36 12 -32 15 15
29 -28 31 -102 2 -62 -1 -86 -12 -97 -19 -19 -27 -19 -19 0 3 9 -2 24 -11 34
-9 10 -14 24 -12 32 2 8 7 37 10 66 7 52 6 52 -29 69 -28 13 -35 22 -34 43 1
17 3 20 6 8 2 -9 9 -15 14 -12 5 4 5 14 -2 26 -6 11 -8 27 -5 35 3 9 1 12 -4
9 -12 -7 -12 -3 -4 19 11 28 33 17 43 -21z m-3844 -208 c0 -65 -2 -70 -22 -71
-36 -2 -47 12 -49 66 -1 41 3 53 20 66 40 28 51 15 51 -61z m3968 -126 c13
-49 4 -158 -14 -170 -7 -5 -26 -9 -41 -9 -23 0 -28 4 -28 25 0 14 -5 25 -11
25 -7 0 -9 10 -5 25 4 14 3 25 -2 25 -4 0 -6 18 -4 40 4 36 8 42 32 47 16 3
31 12 34 20 9 24 29 9 39 -28z m-156 -94 c8 -28 19 -67 25 -88 16 -52 -1 -69
-43 -44 -41 23 -73 23 -64 0 5 -14 3 -15 -6 -6 -9 9 -5 22 15 59 15 27 26 62
26 84 0 69 27 66 47 -5z m250 -282 c13 -16 48 -75 78 -133 30 -58 81 -141 114
-185 64 -85 79 -128 68 -206 -9 -66 -25 -76 -124 -77 -59 0 -88 -4 -94 -13 -5
-9 -28 -12 -76 -11 -59 2 -76 8 -133 42 l-64 39 -23 -21 c-34 -32 -39 -92 -12
-162 24 -66 56 -99 111 -115 20 -7 40 -16 43 -21 20 -32 -86 -99 -165 -104
-32 -2 -61 -10 -80 -24 -16 -12 -36 -22 -45 -22 -9 0 -14 -4 -11 -9 4 -5 -2
-7 -12 -4 -10 2 -24 -3 -31 -11 -21 -25 -34 -19 -29 14 3 17 1 30 -4 30 -4 0
-8 7 -8 15 0 8 -11 17 -25 21 -14 3 -31 14 -38 24 -12 17 -17 20 -36 20 -33 0
-133 163 -116 190 4 7 -1 13 -13 17 -26 6 -32 30 -32 128 0 63 4 87 20 113 25
41 46 49 70 27 10 -9 24 -14 30 -10 6 4 63 8 127 9 114 3 115 3 138 32 13 16
35 43 49 59 14 17 29 38 32 48 3 9 10 17 15 17 5 0 9 7 9 16 0 8 5 12 11 9 6
-4 8 -13 5 -20 -5 -14 22 -43 39 -44 6 0 13 -10 16 -23 6 -22 7 -22 13 -3 16
44 36 70 58 76 13 3 22 11 20 18 -1 7 2 19 8 27 7 8 9 22 4 36 -9 26 -8 37 7
93 19 66 43 125 53 125 5 0 20 -12 33 -27z m-202 -40 c-3 -27 -22 -65 -47 -95
-16 -19 -35 -27 -63 -30 -40 -3 -40 -3 -43 35 -3 36 -1 39 37 54 23 9 41 20
41 25 0 10 37 26 61 27 9 1 15 -6 14 -16z m-35 -183 c0 -5 -2 -10 -4 -10 -3 0
-8 5 -11 10 -3 6 -1 10 4 10 6 0 11 -4 11 -10z m-185 -906 c0 -14 -6 -18 -23
-17 -13 2 -25 -4 -28 -12 -7 -17 -24 -20 -24 -5 0 15 53 60 65 56 6 -1 10 -11
10 -22z m149 -56 c-11 -101 -56 -183 -116 -214 -34 -17 -165 -12 -185 8 -11
11 -9 19 10 46 12 17 31 35 42 38 11 4 22 10 25 14 3 5 25 19 50 32 81 43 129
77 146 103 25 39 34 30 28 -27z m-154 12 c0 -5 -5 -10 -11 -10 -5 0 -7 5 -4
10 3 6 8 10 11 10 2 0 4 -4 4 -10z m-754 -215 c10 -26 -5 -67 -23 -63 -12 2
-18 14 -18 41 -2 30 2 37 17 37 10 0 21 -7 24 -15z m-273 -210 c47 -46 77 -57
77 -30 0 8 5 15 10 15 15 0 12 -13 -11 -67 -17 -36 -25 -87 -35 -203 -7 -85
-19 -186 -27 -225 l-15 -70 53 -80 c92 -137 124 -230 96 -274 -11 -17 -25 3
-17 24 5 14 -6 20 -27 16 -4 -1 -17 4 -28 10 -16 8 -18 13 -9 24 9 10 8 19 -1
37 -7 12 -13 38 -15 56 -1 19 -10 42 -19 52 -9 9 -15 22 -13 27 6 19 -73 131
-149 209 -43 44 -100 107 -128 139 -27 32 -63 73 -80 90 -16 17 -57 60 -89 96
-36 38 -61 59 -64 51 -3 -10 -9 -10 -28 3 -13 8 -24 11 -24 5 0 -10 17 -44 33
-64 5 -6 43 -63 85 -126 311 -467 317 -474 355 -483 12 -2 31 -8 41 -12 14 -6
17 -5 12 3 -13 21 0 13 27 -17 l25 -29 -23 -33 -22 -34 50 -74 c52 -77 141
-231 169 -291 8 -19 43 -93 76 -165 48 -103 62 -143 66 -195 5 -62 5 -63 -5
-20 -6 25 -17 65 -24 90 -22 73 -210 453 -247 499 -7 9 -22 32 -32 51 -11 19
-23 37 -26 40 -4 3 -23 30 -42 60 -20 30 -53 78 -75 105 -49 62 -173 243 -173
253 0 4 -13 23 -30 42 -16 19 -27 36 -25 38 2 2 -3 11 -10 20 -8 10 -28 35
-44 57 -17 22 -35 45 -41 52 -5 7 -10 16 -10 21 0 8 -68 99 -120 160 -11 13
-20 28 -20 33 0 5 -4 9 -10 9 -5 0 -10 5 -10 10 0 6 -13 29 -30 52 -33 45 -38
63 -15 54 8 -3 15 -1 15 5 0 10 51 9 60 -2 3 -3 38 -31 77 -62 62 -49 131
-122 304 -322 14 -17 37 -40 51 -53 l25 -23 -12 48 c-19 72 -45 133 -77 180
-15 23 -28 45 -28 50 0 4 -14 26 -30 47 -44 58 -40 71 32 107 142 71 162 73
221 14z m-1433 15 c0 -5 -4 -10 -10 -10 -5 0 -10 5 -10 10 0 6 5 10 10 10 6 0
10 -4 10 -10z m242 -60 c32 -33 63 -60 68 -60 6 0 10 -6 10 -14 0 -8 29 -37
65 -65 36 -28 65 -57 65 -64 0 -6 -7 -3 -16 8 -8 11 -16 18 -18 15 -4 -5 -72
58 -181 169 -38 39 -66 71 -61 71 5 0 35 -27 68 -60z m-162 -168 c0 -5 -7 -9
-15 -9 -8 0 -15 4 -15 9 0 4 7 8 15 8 8 0 15 -4 15 -8z m400 -63 c0 -6 -4 -7
-10 -4 -5 3 -10 11 -10 16 0 6 5 7 10 4 6 -3 10 -11 10 -16z m0 -89 c0 -5 -2
-10 -4 -10 -3 0 -8 5 -11 10 -3 6 -1 10 4 10 6 0 11 -4 11 -10z m55 -40 c0 -7
-6 -15 -12 -17 -8 -3 -13 4 -13 17 0 13 5 20 13 18 6 -3 12 -11 12 -18z m-72
-59 c3 -14 0 -17 -14 -14 -10 3 -15 11 -12 19 7 20 20 17 26 -5z m-446 3 c-3
-3 -12 -4 -19 -1 -8 3 -5 6 6 6 11 1 17 -2 13 -5z m503 -18 c9 -12 8 -15 -9
-13 -12 1 -21 7 -21 14 0 17 15 16 30 -1z m-80 -30 c0 -8 -4 -17 -9 -21 -12
-7 -24 12 -16 25 9 15 25 12 25 -4z m-20 -71 c0 -6 -3 -15 -7 -18 -8 -8 -34
13 -28 22 7 12 35 9 35 -4z m70 -23 c-6 -2 -17 -1 -26 2 -12 5 -13 8 -2 20 11
13 15 13 26 -2 8 -11 9 -18 2 -20z m-13 -118 c-7 -7 -37 7 -37 17 0 6 9 5 21
-1 11 -7 19 -14 16 -16z m-7 -54 c13 -8 13 -10 -2 -10 -9 0 -20 5 -23 10 -8
13 5 13 25 0z m-356 -25 c-4 -8 -10 -15 -14 -15 -4 0 -10 7 -14 15 -4 10 1 15
14 15 13 0 18 -5 14 -15z m376 -75 c0 -5 -7 -10 -15 -10 -8 0 -15 5 -15 10 0
6 7 10 15 10 8 0 15 -4 15 -10z m15 -100 c3 -5 1 -10 -4 -10 -6 0 -11 5 -11
10 0 6 2 10 4 10 3 0 8 -4 11 -10z m8 -150 c9 -11 17 -28 17 -38 0 -10 7 -27
15 -39 17 -24 2 -44 -18 -24 -8 8 -7 11 2 11 9 0 5 11 -11 33 -41 53 -45 104
-5 57z m87 -50 c0 -5 -9 -10 -21 -10 -11 0 -17 5 -14 10 3 6 13 10 21 10 8 0
14 -4 14 -10z m-22 -122 c13 -45 12 -109 0 -101 -5 2 -8 19 -8 37 0 17 -5 37
-12 44 -7 7 -8 12 -2 12 5 0 3 4 -5 9 -14 9 -9 41 7 41 4 0 13 -19 20 -42z
m80 20 c-7 -19 -38 -22 -38 -4 0 10 9 16 21 16 12 0 19 -5 17 -12z m62 -88 c0
-3 -18 -11 -40 -17 -35 -9 -40 -8 -40 7 0 14 8 17 40 16 22 0 40 -3 40 -6z
m-116 -101 c-3 -5 -10 -7 -15 -3 -5 3 -7 10 -3 15 3 5 10 7 15 3 5 -3 7 -10 3
-15z m106 -4 c0 -2 -9 -9 -20 -15 -22 -12 -44 -5 -35 11 6 9 55 13 55 4z
m-106 -40 c-4 -8 -8 -15 -10 -15 -2 0 -4 7 -4 15 0 8 4 15 10 15 5 0 7 -7 4
-15z m107 -90 c-2 -12 -51 -26 -51 -15 0 11 32 30 43 27 5 -1 8 -7 8 -12z m39
-55 c0 -5 -5 -10 -11 -10 -5 0 -7 5 -4 10 3 6 8 10 11 10 2 0 4 -4 4 -10z
m1050 -72 c0 -56 -9 -88 -25 -88 -7 0 -15 11 -17 25 -3 14 -1 25 3 25 5 0 9
-4 9 -10 0 -5 5 -10 11 -10 7 0 10 18 7 50 -1 28 0 50 5 50 4 0 7 -19 7 -42z
m-1093 7 c-8 -18 -61 -21 -55 -3 4 12 48 28 57 22 2 -2 1 -10 -2 -19z m663
-25 c0 -5 -5 -10 -11 -10 -5 0 -7 5 -4 10 3 6 8 10 11 10 2 0 4 -4 4 -10z
m-680 -106 c0 -2 -9 -4 -21 -4 -11 0 -18 4 -14 10 5 8 35 3 35 -6z m-25 -94
c3 -5 -3 -10 -15 -10 -12 0 -18 5 -15 10 3 6 10 10 15 10 5 0 12 -4 15 -10z
m-18 -116 c-3 -3 -12 -4 -19 -1 -8 3 -5 6 6 6 11 1 17 -2 13 -5z"/>
<path d="M1566 5884 c-10 -25 -1 -27 19 -4 15 17 16 20 3 20 -9 0 -19 -7 -22
-16z"/>
</g>
</svg>
